<svg id="zoom-out" xmlns="http://www.w3.org/2000/svg" width="21.773" height="21.774" viewBox="0 0 21.773 21.774">
  <path id="패스_1471" data-name="패스 1471" d="M8.845,16.33A7.485,7.485,0,1,0,1.361,8.845,7.485,7.485,0,0,0,8.845,16.33m8.845-7.485A8.845,8.845,0,1,1,8.845,0a8.845,8.845,0,0,1,8.845,8.845" transform="translate(0)" fill-rule="evenodd"/>
  <path id="패스_1472" data-name="패스 1472" d="M10.344,12.247a1.433,1.433,0,0,0,.133.156l5.239,5.239a1.361,1.361,0,0,0,1.926-1.924L12.4,10.479a1.361,1.361,0,0,0-.156-.136,8.845,8.845,0,0,1-1.9,1.905Z" transform="translate(3.732 3.732)"/>
  <text id="_1:1" data-name="1:1" transform="translate(2.887 11.887)" font-size="9" font-family="Noto Sans KR" font-weight="700" letter-spacing="-0.1em"><tspan x="0" y="0">1:1</tspan></text>
</svg>
