<?xml version="1.0" encoding="utf-8"?>
<svg xmlns="http://www.w3.org/2000/svg" viewBox="0 0 16 16" width="16px" height="16px">
  <path d="M11.742 10.344a6.5 6.5 0 1 0-1.397 1.398h-.001q.044.06.098.115l3.85 3.85a1 1 0 0 0 1.415-1.414l-3.85-3.85a1 1 0 0 0-.115-.1zM12 6.5a5.5 5.5 0 1 1-11 0 5.5 5.5 0 0 1 11 0"/>
  <path d="M 2.72 6.666 C 2.612 6.457 2.612 6.121 2.72 5.915 L 3.836 3.793 C 3.988 3.503 4.248 3.635 4.303 4.03 C 4.329 4.213 4.301 4.409 4.23 4.544 L 3.59 5.758 L 9.492 5.758 L 8.853 4.544 C 8.7 4.254 8.771 3.761 8.977 3.655 C 9.073 3.606 9.176 3.658 9.247 3.793 L 10.363 5.915 C 10.472 6.121 10.472 6.457 10.363 6.666 L 9.247 8.787 C 9.096 9.074 8.837 8.943 8.781 8.549 C 8.754 8.365 8.782 8.169 8.853 8.035 L 9.492 6.82 L 3.59 6.82 L 4.23 8.035 C 4.383 8.325 4.313 8.817 4.106 8.924 C 4.009 8.973 3.907 8.92 3.836 8.787 L 2.72 6.666 Z" style="transform-box: fill-box; transform-origin: 50% 50%;" transform="matrix(0, -1, 1, 0, 0, 0)"/>
</svg>